<svg width="190" height="220" viewBox="0 0 190 220" fill="none" xmlns="http://www.w3.org/2000/svg">
<g clip-path="url(#clip0_1_49)">
<rect x="48.6582" y="-0.000244141" width="146" height="188" rx="10" transform="rotate(15 48.6582 -0.000244141)" fill="#161C28"/>
<circle cx="8.75499" cy="163.755" r="79" transform="rotate(15 8.75499 163.755)" fill="#232937"/>
<circle cx="202.922" cy="46.9469" r="79" transform="rotate(15 202.922 46.9469)" fill="#232937"/>
<circle opacity="0.5" cx="84.0976" cy="34.1522" r="14" transform="rotate(15 84.0976 34.1522)" fill="white"/>
<circle opacity="0.5" cx="68.0312" cy="29.8473" r="14" transform="rotate(15 68.0312 29.8473)" fill="white"/>
<path d="M46.4515 78.0895L45.4307 77.8159C45.449 77.5061 45.4125 77.2199 45.3211 76.9572C45.2325 76.6952 45.1014 76.4601 44.9278 76.2518C44.7577 76.0415 44.5539 75.8634 44.3166 75.7174C44.0792 75.5715 43.8206 75.461 43.5407 75.386C43.0303 75.2492 42.5333 75.2543 42.0499 75.4012C41.5691 75.5489 41.1394 75.8411 40.7606 76.2778C40.3845 76.7153 40.0987 77.299 39.9032 78.0289C39.7076 78.7588 39.6632 79.4072 39.7702 79.9741C39.8798 80.5417 40.1059 81.0097 40.4484 81.3779C40.7937 81.7469 41.2215 81.9997 41.7319 82.1365C42.0118 82.2115 42.291 82.2451 42.5695 82.2374C42.8481 82.2297 43.1132 82.1787 43.3649 82.0844C43.6202 81.9881 43.8516 81.8486 44.0594 81.6661C44.2706 81.4815 44.4454 81.2518 44.5837 80.9771L45.6045 81.2507C45.4122 81.6609 45.1689 82.009 44.8747 82.2948C44.5805 82.5807 44.2504 82.8025 43.8846 82.9604C43.5195 83.1155 43.1325 83.2044 42.7234 83.2272C42.3172 83.2507 41.9013 83.2054 41.476 83.0915C40.7571 82.8988 40.1647 82.5519 39.6991 82.0506C39.2334 81.5494 38.9268 80.9319 38.7792 80.1983C38.6317 79.4647 38.677 78.6533 38.9153 77.7642C39.1535 76.8751 39.5199 76.1498 40.0145 75.5882C40.5091 75.0266 41.0833 74.6452 41.7373 74.444C42.3912 74.2427 43.0776 74.2384 43.7966 74.4311C44.2219 74.545 44.6046 74.7137 44.9447 74.9372C45.2876 75.1614 45.578 75.4334 45.8158 75.753C46.0545 76.0699 46.2297 76.4256 46.3416 76.8203C46.4542 77.2123 46.4909 77.6353 46.4515 78.0895ZM46.4164 84.2917L48.1105 77.9693L49.049 78.2208L48.7931 79.1757L48.859 79.1934C49.0581 78.9114 49.3346 78.7135 49.6887 78.5995C50.0428 78.4856 50.4091 78.4793 50.7878 78.5808C50.8592 78.5999 50.948 78.6252 51.0543 78.6566C51.1605 78.688 51.2404 78.7138 51.2938 78.734L51.0291 79.7219C50.9984 79.7048 50.9262 79.6723 50.8126 79.6242C50.7025 79.5741 50.583 79.5318 50.454 79.4972C50.1467 79.4149 49.855 79.4058 49.5789 79.4701C49.3064 79.5323 49.07 79.6572 48.8697 79.8447C48.673 80.0303 48.5364 80.2657 48.4599 80.5511L47.3879 84.552L46.4164 84.2917ZM53.1522 86.2377C52.543 86.0745 52.0536 85.7992 51.6838 85.4119C51.3176 85.0226 51.0801 84.5531 50.9715 84.0035C50.8664 83.4518 50.9006 82.8521 51.0742 82.2045C51.2477 81.5569 51.5186 81.0177 51.887 80.587C52.2588 80.1543 52.6945 79.8564 53.1941 79.6932C53.6972 79.528 54.2341 79.5219 54.8049 79.6748C55.1342 79.763 55.4447 79.905 55.7363 80.1008C56.0279 80.2966 56.2724 80.5533 56.4697 80.8709C56.6677 81.1857 56.7908 81.5657 56.8391 82.011C56.8875 82.4563 56.8326 82.974 56.6745 83.5639L56.5642 83.9756L51.6907 82.6697L51.9157 81.83L55.8013 82.8712C55.8969 82.5144 55.9109 82.177 55.8432 81.8589C55.7782 81.5415 55.6371 81.2669 55.4198 81.0351C55.2052 80.8041 54.9223 80.6415 54.5711 80.5474C54.1841 80.4438 53.8236 80.4501 53.4895 80.5664C53.1589 80.6808 52.8773 80.87 52.6448 81.1342C52.4122 81.3984 52.2493 81.7047 52.1559 82.0532L52.0059 82.613C51.8779 83.0905 51.8518 83.5173 51.9275 83.8934C52.0066 84.2676 52.1712 84.5808 52.4213 84.8331C52.6721 85.0826 52.9936 85.26 53.3861 85.3651C53.6413 85.4335 53.8813 85.4596 54.1062 85.4434C54.3346 85.4252 54.5438 85.3636 54.7337 85.2586C54.9243 85.1508 55.0902 84.9982 55.2314 84.8008L56.0993 85.3157C55.9152 85.6075 55.6742 85.8429 55.3762 86.0219C55.079 86.1981 54.7409 86.3075 54.3618 86.3501C53.9835 86.3899 53.5803 86.3524 53.1522 86.2377ZM59.1039 87.8501C58.7033 87.7428 58.3599 87.5699 58.0738 87.3315C57.7884 87.0903 57.5883 86.7999 57.4734 86.4603C57.3593 86.118 57.3573 85.741 57.4676 85.3294C57.5647 84.9671 57.7147 84.6926 57.9177 84.5059C58.1214 84.3163 58.3599 84.1891 58.6332 84.1241C58.9065 84.0591 59.1957 84.0336 59.5007 84.0477C59.8092 84.0598 60.1155 84.0859 60.4194 84.1262C60.8168 84.1798 61.1382 84.2262 61.3835 84.2654C61.6324 84.3027 61.8201 84.3045 61.9468 84.2708C62.0762 84.2378 62.1619 84.1431 62.2038 83.9867L62.2126 83.9538C62.3214 83.5476 62.2948 83.2023 62.1329 82.9177C61.9736 82.6339 61.6704 82.432 61.2231 82.3122C60.7593 82.1879 60.3685 82.192 60.0507 82.3245C59.7328 82.457 59.4895 82.6241 59.3207 82.826L58.487 82.2496C58.7545 81.9096 59.0542 81.6693 59.386 81.5288C59.7212 81.3862 60.0635 81.3162 60.4129 81.3186C60.7657 81.319 61.1012 81.3619 61.4196 81.4472C61.6226 81.5016 61.8493 81.5888 62.0995 81.7088C62.3531 81.8268 62.5836 81.9929 62.7909 82.2073C63.0009 82.4224 63.1481 82.7015 63.2326 83.0448C63.3171 83.388 63.2921 83.8107 63.1575 84.3128L62.0414 88.4784L61.07 88.2181L61.2994 87.362L61.25 87.3487C61.1474 87.4683 60.9983 87.5857 60.8027 87.7009C60.6071 87.8162 60.367 87.8945 60.0824 87.9358C59.7978 87.9772 59.4716 87.9487 59.1039 87.8501ZM59.4859 87.0172C59.8701 87.1201 60.2141 87.1314 60.518 87.0511C60.8246 86.9715 61.0771 86.8303 61.2756 86.6276C61.4767 86.4257 61.6126 86.193 61.6832 85.9295L61.9214 85.0404C61.867 85.0788 61.7643 85.0998 61.6134 85.1035C61.4659 85.1051 61.2975 85.0968 61.1083 85.0784C60.9226 85.0581 60.7417 85.0361 60.5657 85.0125C60.3932 84.9868 60.2529 84.9669 60.145 84.9527C59.8837 84.918 59.6334 84.9082 59.394 84.9235C59.1581 84.9368 58.9534 84.9981 58.78 85.1075C58.61 85.2149 58.492 85.3921 58.4258 85.6391C58.3354 85.9766 58.3918 86.2652 58.5952 86.505C58.8021 86.7428 59.099 86.9135 59.4859 87.0172ZM66.1665 89.7249C65.6396 89.5837 65.2102 89.326 64.8781 88.9517C64.5468 88.5747 64.3327 88.1115 64.2358 87.562C64.1397 87.0098 64.1813 86.3989 64.3607 85.7293C64.5386 85.0653 64.8069 84.5195 65.1656 84.0921C65.5242 83.6647 65.9423 83.3723 66.4197 83.2149C66.8972 83.0576 67.4021 83.0502 67.9344 83.1928C68.346 83.3031 68.6528 83.4589 68.8548 83.66C69.0602 83.8592 69.2029 84.0621 69.2828 84.2688C69.3662 84.4735 69.4289 84.6403 69.4708 84.7692L69.5531 84.7913L70.3869 81.6795L71.3584 81.9397L69.0996 90.3696L68.1611 90.1182L68.4214 89.1468L68.3061 89.1159C68.2039 89.212 68.0634 89.3302 67.8846 89.4706C67.7066 89.6082 67.4771 89.7128 67.1961 89.7846C66.9158 89.8536 66.5726 89.8337 66.1665 89.7249ZM66.532 88.8876C66.9217 88.992 67.2782 88.9787 67.6015 88.8477C67.9256 88.7139 68.2061 88.4847 68.4432 88.16C68.6809 87.8325 68.8637 87.43 68.9917 86.9525C69.1181 86.4806 69.1602 86.0492 69.1178 85.6584C69.0762 85.2649 68.9474 84.9334 68.7314 84.6637C68.5162 84.3914 68.211 84.2022 67.8158 84.0964C67.4042 83.9861 67.0329 83.9998 66.7019 84.1376C66.3743 84.2733 66.0938 84.5026 65.8603 84.8253C65.6302 85.146 65.4556 85.5286 65.3365 85.9732C65.2159 86.4232 65.175 86.8504 65.2137 87.2549C65.2558 87.6574 65.3837 88.0034 65.5973 88.293C65.8143 88.5805 66.1259 88.7787 66.532 88.8876ZM71.0136 90.8825L72.7077 84.5601L73.6791 84.8204L71.985 91.1428L71.0136 90.8825ZM73.484 83.6387C73.2946 83.588 73.1486 83.4797 73.046 83.314C72.9461 83.149 72.9204 82.9759 72.9689 82.7948C73.0174 82.6137 73.1262 82.4767 73.2952 82.3837C73.467 82.2915 73.6476 82.2708 73.8369 82.3215C74.0262 82.3723 74.1709 82.4801 74.2708 82.6451C74.3734 82.8109 74.4005 82.9843 74.352 83.1654C74.3034 83.3465 74.1933 83.4832 74.0215 83.5754C73.8525 83.6683 73.6733 83.6894 73.484 83.6387ZM78.2079 86.0339L77.9873 86.8571L74.7109 85.9792L74.9314 85.1559L78.2079 86.0339ZM76.2923 83.8971L77.2637 84.1573L75.649 90.1834C75.5755 90.4578 75.5601 90.6743 75.6029 90.8328C75.6492 90.9893 75.7292 91.1078 75.843 91.1883C75.9602 91.2668 76.0901 91.3251 76.2328 91.3634C76.3398 91.392 76.4291 91.4101 76.5007 91.4175C76.5729 91.4221 76.6308 91.4259 76.6741 91.4287L76.6379 92.3542C76.5654 92.3613 76.4669 92.3613 76.3423 92.3544C76.2169 92.3502 76.0637 92.3239 75.8826 92.2754C75.6082 92.2018 75.355 92.0708 75.1232 91.8822C74.8941 91.6944 74.7255 91.4565 74.6174 91.1687C74.5119 90.8817 74.5085 90.5543 74.607 90.1866L76.2923 83.8971ZM89.7031 89.6787L88.6823 89.4052C88.7006 89.0954 88.6641 88.8091 88.5727 88.5464C88.4841 88.2844 88.353 88.0493 88.1794 87.841C88.0093 87.6307 87.8055 87.4526 87.5682 87.3067C87.3308 87.1607 87.0722 87.0502 86.7923 86.9752C86.2819 86.8385 85.7849 86.8435 85.3015 86.9905C84.8207 87.1381 84.391 87.4303 84.0122 87.867C83.6361 88.3045 83.3503 88.8882 83.1547 89.6181C82.9592 90.3481 82.9148 90.9965 83.0218 91.5634C83.1314 92.131 83.3575 92.5989 83.7 92.9671C84.0453 93.3361 84.4731 93.589 84.9835 93.7257C85.2634 93.8007 85.5426 93.8344 85.8211 93.8267C86.0997 93.8189 86.3648 93.7679 86.6165 93.6736C86.8718 93.5773 87.1032 93.4379 87.311 93.2553C87.5222 93.0707 87.697 92.8411 87.8353 92.5664L88.8561 92.8399C88.6638 93.2501 88.4205 93.5982 88.1263 93.884C87.8321 94.1699 87.502 94.3918 87.1362 94.5496C86.7711 94.7047 86.3841 94.7937 85.975 94.8164C85.5688 94.8399 85.1529 94.7947 84.7276 94.6807C84.0086 94.488 83.4163 94.1411 82.9506 93.6399C82.485 93.1386 82.1784 92.5212 82.0308 91.7875C81.8833 91.0539 81.9286 90.2425 82.1669 89.3534C82.4051 88.4643 82.7715 87.739 83.2661 87.1774C83.7607 86.6159 84.3349 86.2344 84.9888 86.0332C85.6428 85.8319 86.3292 85.8276 87.0482 86.0203C87.4735 86.1342 87.8562 86.303 88.1963 86.5265C88.5392 86.7507 88.8295 87.0226 89.0674 87.3422C89.306 87.6591 89.4813 88.0149 89.5932 88.4095C89.7058 88.8015 89.7425 89.2245 89.7031 89.6787ZM89.668 95.8809L91.3621 89.5585L92.3006 89.81L92.0447 90.7649L92.1106 90.7826C92.3097 90.5006 92.5862 90.3027 92.9403 90.1887C93.2943 90.0748 93.6607 90.0685 94.0394 90.17C94.1107 90.1891 94.1996 90.2144 94.3058 90.2458C94.4121 90.2772 94.492 90.303 94.5454 90.3232L94.2807 91.3111C94.25 91.2941 94.1778 91.2615 94.0642 91.2134C93.9541 91.1633 93.8346 91.121 93.7056 91.0864C93.3983 91.0041 93.1066 90.995 92.8305 91.0593C92.558 91.1216 92.3216 91.2465 92.1213 91.434C91.9246 91.6195 91.788 91.8549 91.7115 92.1403L90.6394 96.1412L89.668 95.8809ZM95.8015 97.6832C95.4009 97.5759 95.0575 97.403 94.7714 97.1646C94.486 96.9234 94.2859 96.633 94.171 96.2934C94.0569 95.9511 94.055 95.5741 94.1653 95.1625C94.2623 94.8002 94.4123 94.5257 94.6153 94.339C94.819 94.1494 95.0575 94.0222 95.3308 93.9572C95.6041 93.8922 95.8933 93.8667 96.1984 93.8808C96.5069 93.8929 96.8131 93.919 97.117 93.9593C97.5144 94.0129 97.8358 94.0593 98.0812 94.0985C98.33 94.1358 98.5177 94.1376 98.6444 94.1039C98.7738 94.0709 98.8595 93.9762 98.9014 93.8198L98.9102 93.7869C99.0191 93.3807 98.9925 93.0354 98.8305 92.7508C98.6713 92.467 98.368 92.2651 97.9207 92.1453C97.457 92.021 97.0662 92.0251 96.7483 92.1576C96.4305 92.2901 96.1872 92.4572 96.0184 92.6591L95.1846 92.0827C95.4522 91.7427 95.7518 91.5024 96.0836 91.3619C96.4188 91.2193 96.7611 91.1493 97.1105 91.1517C97.4633 91.1521 97.7989 91.195 98.1172 91.2803C98.3203 91.3347 98.5469 91.4219 98.7971 91.5419C99.0508 91.6599 99.2812 91.826 99.4885 92.0404C99.6985 92.2555 99.8458 92.5346 99.9303 92.8779C100.015 93.2211 99.9897 93.6438 99.8552 94.146L98.739 98.3115L97.7676 98.0512L97.997 97.1951L97.9476 97.1818C97.845 97.3014 97.6959 97.4188 97.5003 97.534C97.3047 97.6493 97.0646 97.7276 96.78 97.7689C96.4954 97.8103 96.1693 97.7818 95.8015 97.6832ZM96.1835 96.8503C96.5677 96.9532 96.9117 96.9645 97.2156 96.8842C97.5222 96.8046 97.7748 96.6634 97.9732 96.4607C98.1744 96.2588 98.3102 96.0261 98.3808 95.7626L98.6191 94.8735C98.5647 94.9119 98.462 94.9329 98.311 94.9366C98.1635 94.9382 97.9952 94.9299 97.806 94.9115C97.6202 94.8912 97.4394 94.8692 97.2634 94.8456C97.0908 94.8199 96.9506 94.8 96.8426 94.7858C96.5813 94.7511 96.331 94.7413 96.0916 94.7566C95.8557 94.7699 95.6511 94.8312 95.4776 94.9406C95.3077 95.048 95.1896 95.2252 95.1234 95.4722C95.033 95.8097 95.0895 96.0983 95.2929 96.3381C95.4997 96.5759 95.7966 96.7466 96.1835 96.8503ZM102.864 99.558C102.337 99.4168 101.908 99.1591 101.576 98.7848C101.244 98.4078 101.03 97.9446 100.933 97.3951C100.837 96.8429 100.879 96.232 101.058 95.5624C101.236 94.8984 101.505 94.3526 101.863 93.9252C102.222 93.4978 102.64 93.2054 103.117 93.048C103.595 92.8907 104.1 92.8833 104.632 93.0259C105.044 93.1362 105.35 93.292 105.552 93.4931C105.758 93.6923 105.901 93.8952 105.98 94.102C106.064 94.3066 106.127 94.4734 106.168 94.6023L106.251 94.6244L107.085 91.5126L108.056 91.7728L105.797 100.203L104.859 99.9513L105.119 98.9799L105.004 98.949C104.902 99.0451 104.761 99.1633 104.582 99.3037C104.404 99.4413 104.175 99.5459 103.894 99.6177C103.613 99.6867 103.27 99.6668 102.864 99.558ZM103.23 98.7207C103.619 98.8251 103.976 98.8118 104.299 98.6808C104.623 98.547 104.904 98.3178 105.141 97.9931C105.379 97.6656 105.561 97.2631 105.689 96.7857C105.816 96.3137 105.858 95.8823 105.815 95.4915C105.774 95.098 105.645 94.7665 105.429 94.4968C105.214 94.2245 104.909 94.0353 104.513 93.9295C104.102 93.8192 103.731 93.8329 103.4 93.9707C103.072 94.1064 102.791 94.3357 102.558 94.6584C102.328 94.9791 102.153 95.3617 102.034 95.8063C101.914 96.2563 101.873 96.6835 101.911 97.088C101.953 97.4905 102.081 97.8365 102.295 98.1261C102.512 98.4137 102.824 98.6118 103.23 98.7207Z" fill="#E6E6E6"/>
<circle cx="35.1436" cy="96.8003" r="2" transform="rotate(15 35.1436 96.8003)" fill="#D9D9D9"/>
<circle cx="45.7687" cy="99.6474" r="2" transform="rotate(15 45.7687 99.6474)" fill="#D9D9D9"/>
<circle cx="56.394" cy="102.494" r="2" transform="rotate(15 56.394 102.494)" fill="#D9D9D9"/>
<circle cx="67.0187" cy="105.341" r="2" transform="rotate(15 67.0187 105.341)" fill="#D9D9D9"/>
<path d="M84.6358 105.168L82.377 113.598L81.3562 113.324L83.3283 105.964L83.2789 105.951L80.8546 106.766L81.1325 105.729L83.615 104.894L84.6358 105.168ZM84.8015 114.247L85 113.506L88.5987 111.206C89.0208 110.937 89.3728 110.699 89.6547 110.492C89.9373 110.282 90.1606 110.075 90.3247 109.869C90.4922 109.66 90.6105 109.427 90.6796 109.17C90.759 108.873 90.7564 108.597 90.6718 108.342C90.59 108.088 90.4427 107.869 90.2301 107.686C90.0175 107.502 89.7589 107.37 89.4543 107.288C89.1305 107.202 88.8298 107.193 88.5523 107.263C88.2783 107.331 88.0434 107.466 87.8478 107.67C87.6548 107.874 87.5153 108.136 87.4293 108.457L86.4579 108.197C86.5902 107.703 86.8203 107.3 87.1481 106.988C87.4758 106.676 87.8638 106.468 88.3121 106.365C88.7632 106.262 89.2343 106.276 89.7255 106.408C90.2194 106.54 90.6292 106.762 90.9547 107.073C91.2803 107.383 91.504 107.745 91.6259 108.157C91.7479 108.569 91.7507 108.992 91.6346 109.425C91.5515 109.735 91.414 110.024 91.2221 110.29C91.0336 110.554 90.7537 110.831 90.3822 111.119C90.0142 111.406 89.5192 111.744 88.8973 112.133L86.4612 113.651L86.4436 113.717L90.3622 114.767L90.1195 115.672L84.8015 114.247ZM94.637 117.006C94.0937 116.861 93.6343 116.638 93.259 116.337C92.8864 116.037 92.6197 115.688 92.459 115.289C92.3017 114.888 92.2713 114.464 92.3677 114.016L93.405 114.294C93.3542 114.571 93.3846 114.831 93.4963 115.073C93.6088 115.312 93.7837 115.52 94.0212 115.699C94.2587 115.877 94.5394 116.01 94.8632 116.096C95.2254 116.193 95.5634 116.216 95.8771 116.165C96.1908 116.114 96.4574 115.997 96.6769 115.815C96.8963 115.632 97.0458 115.393 97.1252 115.097C97.2082 114.786 97.2046 114.493 97.1141 114.216C97.0244 113.936 96.8494 113.689 96.5891 113.475C96.3288 113.261 95.9845 113.097 95.5565 112.982L94.8814 112.801L95.1241 111.896L95.7991 112.077C96.1339 112.166 96.4437 112.185 96.7285 112.131C97.016 112.079 97.2606 111.962 97.4621 111.781C97.6664 111.6 97.8082 111.362 97.8876 111.066C97.9641 110.78 97.9675 110.515 97.8979 110.27C97.8283 110.025 97.694 109.812 97.4951 109.633C97.299 109.453 97.0459 109.322 96.7358 109.239C96.4449 109.161 96.1562 109.141 95.8696 109.179C95.5864 109.215 95.337 109.312 95.1215 109.469C94.9066 109.623 94.7548 109.838 94.6661 110.114L93.6782 109.849C93.8131 109.412 94.0499 109.061 94.3885 108.796C94.728 108.528 95.1244 108.355 95.5777 108.276C96.0339 108.198 96.5048 108.225 96.9905 108.355C97.5119 108.494 97.9309 108.72 98.2474 109.031C98.5648 109.34 98.7776 109.692 98.886 110.089C98.9944 110.486 98.9953 110.883 98.8887 111.281C98.7615 111.756 98.5282 112.127 98.1888 112.395C97.8521 112.663 97.4538 112.805 96.9939 112.82L96.9763 112.886C97.4851 113.117 97.8402 113.454 98.0415 113.899C98.2436 114.342 98.2729 114.831 98.1295 115.366C98.0067 115.824 97.7716 116.202 97.4241 116.5C97.08 116.796 96.666 116.991 96.1821 117.085C95.6981 117.179 95.1831 117.153 94.637 117.006ZM99.4654 116.324L99.6904 115.484L104.966 110.615L105.575 110.778L105.226 112.079L104.815 111.969L100.829 115.648L100.811 115.714L105.8 117.05L105.557 117.956L99.4654 116.324ZM102.97 119.116L103.502 117.132L103.607 116.741L105.229 110.686L106.2 110.946L103.942 119.376L102.97 119.116Z" fill="#F0F0EF"/>
<path d="M109.622 181.067C109.002 180.901 108.519 180.591 108.173 180.136C107.828 179.679 107.626 179.097 107.569 178.391C107.512 177.681 107.606 176.868 107.852 175.952C108.096 175.041 108.419 174.294 108.823 173.711C109.23 173.126 109.697 172.721 110.224 172.498C110.755 172.273 111.328 172.242 111.943 172.407C112.557 172.572 113.037 172.884 113.381 173.344C113.729 173.802 113.932 174.385 113.989 175.095C114.049 175.802 113.957 176.611 113.713 177.522C113.468 178.439 113.143 179.19 112.739 179.776C112.335 180.359 111.87 180.762 111.342 180.986C110.816 181.206 110.242 181.233 109.622 181.067ZM109.865 180.162C110.479 180.326 111.036 180.158 111.535 179.656C112.034 179.155 112.431 178.355 112.725 177.258C112.921 176.528 113.009 175.885 112.99 175.33C112.974 174.776 112.857 174.325 112.638 173.978C112.422 173.632 112.111 173.405 111.704 173.296C111.095 173.133 110.539 173.306 110.035 173.815C109.531 174.321 109.133 175.122 108.84 176.217C108.644 176.946 108.555 177.587 108.572 178.139C108.588 178.69 108.705 179.138 108.922 179.481C109.142 179.825 109.456 180.052 109.865 180.162ZM119.121 174.33C119.466 174.426 119.794 174.584 120.106 174.806C120.417 175.028 120.675 175.326 120.88 175.702C121.086 176.075 121.207 176.541 121.242 177.1C121.278 177.66 121.192 178.326 120.984 179.1C120.784 179.849 120.534 180.496 120.235 181.039C119.94 181.581 119.606 182.015 119.234 182.341C118.863 182.669 118.462 182.884 118.028 182.989C117.597 183.094 117.144 183.083 116.669 182.956C116.197 182.829 115.801 182.623 115.48 182.337C115.163 182.049 114.932 181.706 114.785 181.308C114.643 180.908 114.598 180.477 114.651 180.015L115.655 180.284C115.642 180.695 115.736 181.063 115.938 181.388C116.142 181.71 116.467 181.931 116.912 182.05C117.562 182.224 118.151 182.078 118.679 181.61C119.21 181.144 119.615 180.392 119.893 179.355L119.827 179.337C119.611 179.526 119.376 179.676 119.119 179.787C118.863 179.898 118.594 179.964 118.312 179.985C118.03 180.007 117.743 179.979 117.452 179.901C116.969 179.771 116.558 179.533 116.219 179.186C115.883 178.838 115.65 178.421 115.521 177.936C115.396 177.45 115.406 176.935 115.551 176.391C115.69 175.876 115.931 175.434 116.277 175.068C116.625 174.7 117.044 174.444 117.532 174.302C118.023 174.16 118.553 174.169 119.121 174.33ZM118.879 175.236C118.533 175.143 118.198 175.146 117.875 175.245C117.555 175.342 117.275 175.514 117.035 175.761C116.799 176.007 116.633 176.305 116.539 176.656C116.445 177.007 116.436 177.348 116.513 177.677C116.593 178.004 116.744 178.289 116.968 178.531C117.195 178.771 117.481 178.938 117.827 179.03C118.087 179.1 118.344 179.115 118.596 179.073C118.849 179.029 119.083 178.941 119.298 178.807C119.517 178.672 119.705 178.503 119.862 178.301C120.02 178.096 120.132 177.869 120.199 177.619C120.287 177.29 120.29 176.96 120.208 176.629C120.129 176.299 119.975 176.008 119.745 175.755C119.519 175.503 119.23 175.33 118.879 175.236ZM126.742 176.072L121.321 185.437L120.432 185.199L125.853 175.834L126.742 176.072ZM125.513 185.202L125.711 184.461L129.31 182.16C129.732 181.891 130.084 181.653 130.366 181.446C130.648 181.237 130.872 181.029 131.036 180.823C131.203 180.615 131.322 180.382 131.391 180.124C131.47 179.827 131.468 179.552 131.383 179.297C131.301 179.042 131.154 178.824 130.941 178.64C130.729 178.457 130.47 178.324 130.165 178.243C129.842 178.156 129.541 178.147 129.263 178.217C128.989 178.285 128.755 178.42 128.559 178.624C128.366 178.828 128.226 179.091 128.14 179.412L127.169 179.151C127.301 178.658 127.531 178.254 127.859 177.942C128.187 177.63 128.575 177.422 129.023 177.319C129.474 177.216 129.945 177.231 130.437 177.362C130.931 177.495 131.34 177.716 131.666 178.027C131.991 178.338 132.215 178.699 132.337 179.111C132.459 179.523 132.462 179.946 132.346 180.38C132.263 180.69 132.125 180.978 131.933 181.244C131.745 181.508 131.465 181.785 131.093 182.074C130.725 182.36 130.23 182.698 129.608 183.087L127.172 184.605L127.155 184.671L131.073 185.721L130.831 186.627L125.513 185.202ZM135.134 187.903C134.651 187.774 134.242 187.561 133.906 187.265C133.571 186.97 133.332 186.623 133.188 186.226C133.044 185.829 133.019 185.413 133.112 184.979L134.1 185.244C134.036 185.635 134.124 185.997 134.365 186.329C134.609 186.659 134.946 186.882 135.377 186.998C135.722 187.09 136.052 187.092 136.364 187.002C136.679 186.913 136.951 186.747 137.18 186.506C137.413 186.263 137.578 185.961 137.674 185.602C137.773 185.234 137.78 184.884 137.695 184.553C137.614 184.219 137.456 183.931 137.221 183.689C136.986 183.446 136.689 183.276 136.33 183.177C136.073 183.105 135.797 183.074 135.504 183.083C135.211 183.09 134.959 183.133 134.75 183.212L133.826 182.841L135.448 178.829L139.828 180.002L139.585 180.908L136.062 179.964L135.099 182.37L135.148 182.384C135.358 182.293 135.605 182.237 135.89 182.216C136.175 182.196 136.459 182.223 136.742 182.299C137.258 182.437 137.684 182.684 138.021 183.039C138.362 183.392 138.591 183.812 138.707 184.299C138.826 184.787 138.813 185.304 138.667 185.85C138.522 186.388 138.273 186.836 137.918 187.193C137.567 187.549 137.149 187.793 136.664 187.925C136.179 188.054 135.669 188.047 135.134 187.903Z" fill="#F8F8FA"/>
<rect opacity="0.2" x="21.3066" y="140.715" width="34" height="22" rx="4" transform="rotate(15 21.3066 140.715)" fill="white"/>
</g>
<defs>
<clipPath id="clip0_1_49">
<rect x="48.6582" y="-0.000244141" width="146" height="188" rx="10" transform="rotate(15 48.6582 -0.000244141)" fill="white"/>
</clipPath>
</defs>
</svg>
